<svg xmlns="http://www.w3.org/2000/svg" viewBox="0 0 1000 340" data-meters-per-unit="0.0777777777778" data-name="너나들이 · 1층 주차 레이어" data-source-kind="source-traced"><line data-kind="wall" x1="60" y1="145" x2="174" y2="145" stroke-width="3" data-height="3.2"/>
<line data-kind="wall" x1="174" y1="145" x2="174" y2="104" stroke-width="3" data-height="3.2"/>
<line data-kind="wall" x1="174" y1="104" x2="232" y2="104" stroke-width="3" data-height="3.2"/>
<line data-kind="wall" x1="232" y1="104" x2="232" y2="109" stroke-width="3" data-height="3.2"/>
<line data-kind="wall" x1="232" y1="109" x2="437" y2="109" stroke-width="3" data-height="3.2"/>
<line data-kind="wall" x1="437" y1="158" x2="437" y2="290" stroke-width="3" data-height="3.2"/>
<line data-kind="wall" x1="60" y1="145" x2="60" y2="287" stroke-width="3" data-height="3.2"/>
<line data-kind="wall" x1="60" y1="287" x2="437" y2="287" stroke-width="3" data-height="3.2"/>
<line data-kind="wall" x1="696" y1="141" x2="789" y2="141" stroke-width="3" data-height="3.2"/>
<line data-kind="wall" x1="789" y1="141" x2="789" y2="146" stroke-width="3" data-height="3.2"/>
<line data-kind="wall" x1="789" y1="146" x2="889" y2="146" stroke-width="3" data-height="3.2"/>
<line data-kind="wall" x1="889" y1="146" x2="889" y2="178" stroke-width="3" data-height="3.2"/>
<line data-kind="wall" x1="889" y1="178" x2="915" y2="178" stroke-width="3" data-height="3.2"/>
<line data-kind="wall" x1="915" y1="178" x2="915" y2="286" stroke-width="3" data-height="3.2"/>
<line data-kind="wall" x1="915" y1="286" x2="695" y2="286" stroke-width="3" data-height="3.2"/>
<line data-kind="wall" x1="695" y1="286" x2="695" y2="141" stroke-width="3" data-height="3.2"/>
<line id="street" data-kind="lane" x1="330" y1="40" x2="900" y2="40" data-width="6" data-connection="road" stroke="#9bad9d" stroke-width="77.1428571428351"/>
<line id="entry" data-kind="lane" x1="545" y1="40" x2="545" y2="273" data-width="7" data-connection="entrance" stroke="#9bad9d" stroke-width="89.99999999997429"/>
<circle id="road-start" data-kind="target" cx="330" cy="40" data-role="road" data-label="도면에 표기된 6m 도로" r="3" fill="#4f8569"/>
<circle id="entrance" data-kind="target" cx="545" cy="140" data-role="entrance" data-label="차량 진입 표시" r="3" fill="#4f8569"/>
<circle id="P2" data-kind="target" cx="545" cy="208" data-role="parking" data-label="주차 구역 2 앞 차로" r="3" fill="#4f8569"/>
<circle id="P3" data-kind="target" cx="545" cy="271" data-role="parking" data-label="주차 구역 3 앞 차로" r="3" fill="#4f8569"/>
<rect id="bay-P1" data-kind="space" data-role="parking" data-label="주차 P1" x="593" y="138" width="70" height="34" fill="none" stroke="#809783"/>
<rect id="bay-P2" data-kind="space" data-role="parking" data-label="주차 P2" x="593" y="191" width="70" height="34" fill="none" stroke="#809783"/>
<rect id="bay-P3" data-kind="space" data-role="parking" data-label="주차 P3" x="593" y="254" width="70" height="34" fill="none" stroke="#809783"/></svg>
